<svg xmlns="http://www.w3.org/2000/svg" viewBox="0 0 867.04 868.25"><defs><style>.cls-1{fill:#6f55ec;}.cls-2{fill:#fefefe;}.cls-3{fill:#c6c0f8;}</style></defs><g id="Capa_2" data-name="Capa 2"><g id="Capa_1-2" data-name="Capa 1"><path class="cls-1" d="M444,868.25q-126.48-.66-233.18-67.38Q112.1,739.25,54.93,637.73a425.84,425.84,0,0,1-49-137.91A411.36,411.36,0,0,1,.21,417,433.51,433.51,0,0,1,38.89,250a425.71,425.71,0,0,1,80-118.72A417.41,417.41,0,0,1,258.51,34.38a422.67,422.67,0,0,1,84.57-26,440.45,440.45,0,0,1,51.95-7A456.25,456.25,0,0,1,443.66.2,440.17,440.17,0,0,1,571,22.79a432.47,432.47,0,0,1,236.65,193,433.65,433.65,0,0,1,47.93,121.44,449.53,449.53,0,0,1,9.55,60.28,499.75,499.75,0,0,1,1.65,58.68,415.07,415.07,0,0,1-11.5,86.28,357.52,357.52,0,0,1-11.41,38.82c-4,11.09-8.2,22.14-13.09,32.91-2.64,5.81-5.47,11.53-8.22,17.29-17.35,36.35-40.28,68.88-67.37,98.53A423.86,423.86,0,0,1,618.08,830.16a413,413,0,0,1-109.53,33,399.39,399.39,0,0,1-62.06,4.93C445.53,868.1,444.58,868.21,444,868.25ZM211.1,235.38c-.21,4.49,2.3,7.71,5.11,10.73q22,23.72,44.11,47.37,28.92,31.06,57.82,62.13,31.74,34.15,63.45,68.35,22.83,24.62,45.57,49.29a37.23,37.23,0,0,0,7.5,6.67,8.9,8.9,0,0,0,10.12,0,39.62,39.62,0,0,0,7.89-6.95q13-13.81,25.94-27.61,28.88-30.57,57.79-61.1,36.52-38.54,73.11-77,24.86-26.16,49.7-52.33c2.46-2.6,5.16-5,7.19-8,4.4-6.51,3.56-11.3-2.64-16.12-20.56-16-41.22-31.83-60.67-49.19-2.92-2.61-6.15-4.84-10.3-5.21-5.92-.53-9.81,3.07-13.27,6.94-10.8,12.06-21.35,24.34-32.08,36.47-16.61,18.8-33.32,37.51-49.92,56.32-13.21,15-26.3,30.07-39.49,45.07-3.73,4.25-7.12,8.86-11.85,12.14s-9.15,3.3-13.92-.2a43.85,43.85,0,0,1-6.76-6.44c-10.41-11.7-20.73-23.48-31.15-35.18q-28.61-32.13-57.29-64.22c-11.85-13.31-23.6-26.7-35.42-40-3-3.35-5.75-6.88-9.37-9.58-5-3.7-9.59-3.94-14.92-.79a63.22,63.22,0,0,0-7.08,5.32c-18.09,14.6-36,29.4-54.31,43.77C213,228.31,210.84,231.28,211.1,235.38ZM218.49,633c3.76,3.93,7.21,7.22,10.76,10.42A319,319,0,0,0,260.14,668a313.72,313.72,0,0,0,96.91,45.16,338.87,338.87,0,0,0,36.68,7.7c9.53,1.49,19.12,3,28.69,3.22,15.54.42,31.12,1.12,46.68-.54,7.29-.77,14.58-1.42,21.85-2.44a291.36,291.36,0,0,0,33.24-6.66c19.61-5.15,38.69-11.77,56.75-21.13a308.32,308.32,0,0,0,30.3-17.4,231,231,0,0,0,43.22-37.67c1.38-1.54,3-3,3.86-5.25Zm27.09-105.87v.13H183c-6.16,0-12.34-.31-18.46.13-6.63.48-9.65,3-8.17,10.28a87.41,87.41,0,0,0,5.45,16.77c3.87,9.14,10.65,14.5,20.62,16.15,7.31,1.21,14.61,1.18,22,1.2,65.95.2,131.9-.23,197.84.47,35.41.38,70.82,0,106.22.46,35.09.49,70.18-.07,105.27.49,13.91.22,27.82.17,41.73.26,10.69.07,21.37,1,32.06-.09a41.32,41.32,0,0,0,14-3.59c8.37-4,13-11.2,16.54-19.37,2.15-4.89,3-10.2,5.28-15,.68-1.45.88-3.73-.18-5.09-1.78-2.28-3.94-4.12-7.32-4.08-10.07.13-20.15,0-30.22,0-77.7.25-155.4-.29-233.1.43-42.44.39-84.89-.21-127.33.41C298.67,527.46,272.12,527.14,245.58,527.14Z"/><path class="cls-2" d="M211.1,235.38c-.26-4.1,1.89-7.07,4.86-9.4,18.29-14.37,36.22-29.17,54.31-43.77a63.22,63.22,0,0,1,7.08-5.32c5.33-3.15,10-2.91,14.92.79,3.62,2.7,6.4,6.23,9.37,9.58,11.82,13.33,23.57,26.72,35.42,40q28.6,32.15,57.29,64.22c10.42,11.7,20.74,23.48,31.15,35.18a43.85,43.85,0,0,0,6.76,6.44c4.77,3.5,9.06,3.57,13.92.2s8.12-7.89,11.85-12.14c13.19-15,26.28-30.09,39.49-45.07,16.6-18.81,33.31-37.52,49.92-56.32,10.73-12.13,21.28-24.41,32.08-36.47,3.46-3.87,7.35-7.47,13.27-6.94,4.15.37,7.38,2.6,10.3,5.21,19.45,17.36,40.11,33.21,60.67,49.19,6.2,4.82,7,9.61,2.64,16.12-2,3-4.73,5.42-7.19,8q-24.8,26.22-49.7,52.33-36.57,38.52-73.11,77-28.93,30.52-57.79,61.1-13,13.77-25.94,27.61a39.62,39.62,0,0,1-7.89,6.95,8.9,8.9,0,0,1-10.12,0,37.23,37.23,0,0,1-7.5-6.67Q404.38,448.61,381.59,424q-31.69-34.2-63.45-68.35-28.89-31.08-57.82-62.13-22-23.69-44.11-47.37C213.4,243.09,210.89,239.87,211.1,235.38Z"/><path class="cls-3" d="M218.49,633H658.32c-.83,2.29-2.48,3.71-3.86,5.25a231,231,0,0,1-43.22,37.67,308.32,308.32,0,0,1-30.3,17.4c-18.06,9.36-37.14,16-56.75,21.13A291.36,291.36,0,0,1,491,721.12c-7.27,1-14.56,1.67-21.85,2.44-15.56,1.66-31.14,1-46.68.54-9.57-.25-19.16-1.73-28.69-3.22a338.87,338.87,0,0,1-36.68-7.7A313.72,313.72,0,0,1,260.14,668a319,319,0,0,1-30.89-24.59C225.7,640.23,222.25,636.94,218.49,633Z"/><path class="cls-3" d="M245.58,527.14c26.54,0,53.09.32,79.62-.07,42.44-.62,84.89,0,127.33-.41,77.7-.72,155.4-.18,233.1-.43,10.07,0,20.15.11,30.22,0,3.38,0,5.54,1.8,7.32,4.08,1.06,1.36.86,3.64.18,5.09-2.28,4.85-3.13,10.16-5.28,15-3.58,8.17-8.17,15.35-16.54,19.37a41.32,41.32,0,0,1-14,3.59c-10.69,1.08-21.37.16-32.06.09-13.91-.09-27.82,0-41.73-.26-35.09-.56-70.18,0-105.27-.49-35.4-.49-70.81-.08-106.22-.46-65.94-.7-131.89-.27-197.84-.47-7.34,0-14.64,0-22-1.2-10-1.65-16.75-7-20.62-16.15a87.41,87.41,0,0,1-5.45-16.77c-1.48-7.33,1.54-9.8,8.17-10.28,6.12-.44,12.3-.13,18.46-.13h62.6Z"/></g></g></svg>